<mxfile host="app.diagrams.net" modified="2024-04-01T09:45:38.203Z" agent="Mozilla/5.0 (Windows NT 10.0; Win64; x64) AppleWebKit/537.36 (KHTML, like Gecko) Chrome/123.0.0.0 Safari/537.36" etag="TstB192cxA5D-LkMM4n7" version="24.2.1" type="device">
  <diagram id="C5RBs43oDa-KdzZeNtuy" name="Page-1">
    <mxGraphModel dx="555" dy="915" grid="1" gridSize="10" guides="1" tooltips="1" connect="1" arrows="1" fold="1" page="1" pageScale="1" pageWidth="827" pageHeight="1169" math="0" shadow="0">
      <root>
        <mxCell id="WIyWlLk6GJQsqaUBKTNV-0" />
        <mxCell id="WIyWlLk6GJQsqaUBKTNV-1" parent="WIyWlLk6GJQsqaUBKTNV-0" />
        <mxCell id="J5YvXjTz-N14ASz92c-d-11" value="" style="edgeStyle=orthogonalEdgeStyle;rounded=0;orthogonalLoop=1;jettySize=auto;html=1;" edge="1" parent="WIyWlLk6GJQsqaUBKTNV-1" source="WIyWlLk6GJQsqaUBKTNV-3" target="J5YvXjTz-N14ASz92c-d-10">
          <mxGeometry relative="1" as="geometry" />
        </mxCell>
        <mxCell id="WIyWlLk6GJQsqaUBKTNV-3" value="게임 실행" style="rounded=1;whiteSpace=wrap;html=1;fontSize=12;glass=0;strokeWidth=1;shadow=0;" parent="WIyWlLk6GJQsqaUBKTNV-1" vertex="1">
          <mxGeometry x="150" y="30" width="120" height="40" as="geometry" />
        </mxCell>
        <mxCell id="J5YvXjTz-N14ASz92c-d-13" value="" style="edgeStyle=orthogonalEdgeStyle;rounded=0;orthogonalLoop=1;jettySize=auto;html=1;" edge="1" parent="WIyWlLk6GJQsqaUBKTNV-1" source="J5YvXjTz-N14ASz92c-d-10" target="J5YvXjTz-N14ASz92c-d-12">
          <mxGeometry relative="1" as="geometry" />
        </mxCell>
        <mxCell id="J5YvXjTz-N14ASz92c-d-10" value="타이틀 화면" style="rounded=0;whiteSpace=wrap;html=1;fontSize=12;glass=0;strokeWidth=1;shadow=0;" vertex="1" parent="WIyWlLk6GJQsqaUBKTNV-1">
          <mxGeometry x="150" y="90" width="120" height="40" as="geometry" />
        </mxCell>
        <mxCell id="J5YvXjTz-N14ASz92c-d-15" value="" style="edgeStyle=orthogonalEdgeStyle;rounded=0;orthogonalLoop=1;jettySize=auto;html=1;" edge="1" parent="WIyWlLk6GJQsqaUBKTNV-1" source="J5YvXjTz-N14ASz92c-d-12" target="J5YvXjTz-N14ASz92c-d-14">
          <mxGeometry relative="1" as="geometry" />
        </mxCell>
        <mxCell id="J5YvXjTz-N14ASz92c-d-12" value="메인 화면" style="rounded=0;whiteSpace=wrap;html=1;fontSize=12;glass=0;strokeWidth=1;shadow=0;" vertex="1" parent="WIyWlLk6GJQsqaUBKTNV-1">
          <mxGeometry x="150" y="160" width="120" height="40" as="geometry" />
        </mxCell>
        <mxCell id="J5YvXjTz-N14ASz92c-d-44" value="" style="edgeStyle=orthogonalEdgeStyle;rounded=0;orthogonalLoop=1;jettySize=auto;html=1;" edge="1" parent="WIyWlLk6GJQsqaUBKTNV-1" source="J5YvXjTz-N14ASz92c-d-14" target="J5YvXjTz-N14ASz92c-d-43">
          <mxGeometry relative="1" as="geometry" />
        </mxCell>
        <mxCell id="J5YvXjTz-N14ASz92c-d-14" value="게임시작" style="rounded=0;whiteSpace=wrap;html=1;fontSize=12;glass=0;strokeWidth=1;shadow=0;" vertex="1" parent="WIyWlLk6GJQsqaUBKTNV-1">
          <mxGeometry x="150" y="230" width="120" height="40" as="geometry" />
        </mxCell>
        <mxCell id="J5YvXjTz-N14ASz92c-d-21" value="" style="edgeStyle=orthogonalEdgeStyle;rounded=0;orthogonalLoop=1;jettySize=auto;html=1;" edge="1" parent="WIyWlLk6GJQsqaUBKTNV-1" source="J5YvXjTz-N14ASz92c-d-18" target="J5YvXjTz-N14ASz92c-d-20">
          <mxGeometry relative="1" as="geometry" />
        </mxCell>
        <mxCell id="J5YvXjTz-N14ASz92c-d-18" value="스토리 진행" style="rounded=0;whiteSpace=wrap;html=1;fontSize=12;glass=0;strokeWidth=1;shadow=0;" vertex="1" parent="WIyWlLk6GJQsqaUBKTNV-1">
          <mxGeometry x="150" y="520" width="120" height="40" as="geometry" />
        </mxCell>
        <mxCell id="J5YvXjTz-N14ASz92c-d-32" value="" style="edgeStyle=orthogonalEdgeStyle;rounded=0;orthogonalLoop=1;jettySize=auto;html=1;" edge="1" parent="WIyWlLk6GJQsqaUBKTNV-1" source="J5YvXjTz-N14ASz92c-d-20" target="J5YvXjTz-N14ASz92c-d-31">
          <mxGeometry relative="1" as="geometry" />
        </mxCell>
        <mxCell id="J5YvXjTz-N14ASz92c-d-20" value="스테이지 진입" style="rounded=0;whiteSpace=wrap;html=1;fontSize=12;glass=0;strokeWidth=1;shadow=0;" vertex="1" parent="WIyWlLk6GJQsqaUBKTNV-1">
          <mxGeometry x="150" y="590" width="120" height="40" as="geometry" />
        </mxCell>
        <mxCell id="J5YvXjTz-N14ASz92c-d-36" value="" style="edgeStyle=orthogonalEdgeStyle;rounded=0;orthogonalLoop=1;jettySize=auto;html=1;fillColor=#f8cecc;strokeColor=#b85450;strokeWidth=2;exitX=1;exitY=0.5;exitDx=0;exitDy=0;" edge="1" parent="WIyWlLk6GJQsqaUBKTNV-1" source="J5YvXjTz-N14ASz92c-d-31" target="J5YvXjTz-N14ASz92c-d-33">
          <mxGeometry relative="1" as="geometry" />
        </mxCell>
        <mxCell id="J5YvXjTz-N14ASz92c-d-72" style="edgeStyle=orthogonalEdgeStyle;rounded=0;orthogonalLoop=1;jettySize=auto;html=1;exitX=0;exitY=0.5;exitDx=0;exitDy=0;fillColor=#dae8fc;strokeColor=#6c8ebf;strokeWidth=2;" edge="1" parent="WIyWlLk6GJQsqaUBKTNV-1" source="J5YvXjTz-N14ASz92c-d-31" target="J5YvXjTz-N14ASz92c-d-38">
          <mxGeometry relative="1" as="geometry" />
        </mxCell>
        <mxCell id="J5YvXjTz-N14ASz92c-d-31" value="몬스터와 전투를&lt;br&gt;&amp;nbsp;진행할 것인가?" style="rhombus;whiteSpace=wrap;html=1;rounded=0;glass=0;strokeWidth=1;shadow=0;" vertex="1" parent="WIyWlLk6GJQsqaUBKTNV-1">
          <mxGeometry x="150" y="670" width="120" height="90" as="geometry" />
        </mxCell>
        <mxCell id="J5YvXjTz-N14ASz92c-d-66" style="edgeStyle=orthogonalEdgeStyle;rounded=0;orthogonalLoop=1;jettySize=auto;html=1;exitX=0.5;exitY=1;exitDx=0;exitDy=0;entryX=0.5;entryY=0;entryDx=0;entryDy=0;" edge="1" parent="WIyWlLk6GJQsqaUBKTNV-1" source="J5YvXjTz-N14ASz92c-d-33" target="J5YvXjTz-N14ASz92c-d-63">
          <mxGeometry relative="1" as="geometry" />
        </mxCell>
        <mxCell id="J5YvXjTz-N14ASz92c-d-33" value="전투를 진행 하지 &lt;br&gt;않고 지나친다." style="whiteSpace=wrap;html=1;rounded=0;glass=0;strokeWidth=1;shadow=0;" vertex="1" parent="WIyWlLk6GJQsqaUBKTNV-1">
          <mxGeometry x="230" y="800" width="120" height="60" as="geometry" />
        </mxCell>
        <mxCell id="J5YvXjTz-N14ASz92c-d-65" style="edgeStyle=orthogonalEdgeStyle;rounded=0;orthogonalLoop=1;jettySize=auto;html=1;exitX=0.5;exitY=1;exitDx=0;exitDy=0;" edge="1" parent="WIyWlLk6GJQsqaUBKTNV-1" source="J5YvXjTz-N14ASz92c-d-38" target="J5YvXjTz-N14ASz92c-d-63">
          <mxGeometry relative="1" as="geometry">
            <Array as="points">
              <mxPoint x="130" y="880" />
              <mxPoint x="220" y="880" />
            </Array>
          </mxGeometry>
        </mxCell>
        <mxCell id="J5YvXjTz-N14ASz92c-d-38" value="전투를 진행한다" style="whiteSpace=wrap;html=1;rounded=0;glass=0;strokeWidth=1;shadow=0;" vertex="1" parent="WIyWlLk6GJQsqaUBKTNV-1">
          <mxGeometry x="70" y="800" width="120" height="60" as="geometry" />
        </mxCell>
        <mxCell id="J5YvXjTz-N14ASz92c-d-48" value="" style="edgeStyle=orthogonalEdgeStyle;rounded=0;orthogonalLoop=1;jettySize=auto;html=1;fillColor=#f8cecc;strokeColor=#b85450;strokeWidth=2;" edge="1" parent="WIyWlLk6GJQsqaUBKTNV-1" source="J5YvXjTz-N14ASz92c-d-40" target="J5YvXjTz-N14ASz92c-d-47">
          <mxGeometry relative="1" as="geometry" />
        </mxCell>
        <mxCell id="J5YvXjTz-N14ASz92c-d-50" value="" style="edgeStyle=orthogonalEdgeStyle;rounded=0;orthogonalLoop=1;jettySize=auto;html=1;" edge="1" parent="WIyWlLk6GJQsqaUBKTNV-1" source="J5YvXjTz-N14ASz92c-d-40" target="J5YvXjTz-N14ASz92c-d-49">
          <mxGeometry relative="1" as="geometry" />
        </mxCell>
        <mxCell id="J5YvXjTz-N14ASz92c-d-40" value="듀토리얼을 성공적으로 수행했는가?" style="rhombus;whiteSpace=wrap;html=1;rounded=0;glass=0;strokeWidth=1;shadow=0;" vertex="1" parent="WIyWlLk6GJQsqaUBKTNV-1">
          <mxGeometry x="160" y="360" width="100" height="60" as="geometry" />
        </mxCell>
        <mxCell id="J5YvXjTz-N14ASz92c-d-45" value="" style="edgeStyle=orthogonalEdgeStyle;rounded=0;orthogonalLoop=1;jettySize=auto;html=1;" edge="1" parent="WIyWlLk6GJQsqaUBKTNV-1" source="J5YvXjTz-N14ASz92c-d-43" target="J5YvXjTz-N14ASz92c-d-40">
          <mxGeometry relative="1" as="geometry" />
        </mxCell>
        <mxCell id="J5YvXjTz-N14ASz92c-d-43" value="듀토리얼 진행" style="rounded=0;whiteSpace=wrap;html=1;fontSize=12;glass=0;strokeWidth=1;shadow=0;" vertex="1" parent="WIyWlLk6GJQsqaUBKTNV-1">
          <mxGeometry x="150" y="290" width="120" height="40" as="geometry" />
        </mxCell>
        <mxCell id="J5YvXjTz-N14ASz92c-d-51" style="edgeStyle=orthogonalEdgeStyle;rounded=0;orthogonalLoop=1;jettySize=auto;html=1;entryX=1;entryY=0.5;entryDx=0;entryDy=0;exitX=1;exitY=0.75;exitDx=0;exitDy=0;" edge="1" parent="WIyWlLk6GJQsqaUBKTNV-1" source="J5YvXjTz-N14ASz92c-d-47" target="J5YvXjTz-N14ASz92c-d-43">
          <mxGeometry relative="1" as="geometry" />
        </mxCell>
        <mxCell id="J5YvXjTz-N14ASz92c-d-47" value="듀토리얼 실패" style="whiteSpace=wrap;html=1;rounded=0;glass=0;strokeWidth=1;shadow=0;" vertex="1" parent="WIyWlLk6GJQsqaUBKTNV-1">
          <mxGeometry x="310" y="360" width="120" height="60" as="geometry" />
        </mxCell>
        <mxCell id="J5YvXjTz-N14ASz92c-d-55" style="edgeStyle=orthogonalEdgeStyle;rounded=0;orthogonalLoop=1;jettySize=auto;html=1;exitX=0.5;exitY=1;exitDx=0;exitDy=0;entryX=0.5;entryY=0;entryDx=0;entryDy=0;" edge="1" parent="WIyWlLk6GJQsqaUBKTNV-1" source="J5YvXjTz-N14ASz92c-d-49" target="J5YvXjTz-N14ASz92c-d-18">
          <mxGeometry relative="1" as="geometry" />
        </mxCell>
        <mxCell id="J5YvXjTz-N14ASz92c-d-49" value="튜로리얼 성공" style="whiteSpace=wrap;html=1;rounded=0;glass=0;strokeWidth=1;shadow=0;" vertex="1" parent="WIyWlLk6GJQsqaUBKTNV-1">
          <mxGeometry x="150" y="440" width="120" height="60" as="geometry" />
        </mxCell>
        <mxCell id="J5YvXjTz-N14ASz92c-d-60" value="" style="edgeStyle=orthogonalEdgeStyle;rounded=0;orthogonalLoop=1;jettySize=auto;html=1;" edge="1" parent="WIyWlLk6GJQsqaUBKTNV-1" target="J5YvXjTz-N14ASz92c-d-59">
          <mxGeometry relative="1" as="geometry">
            <mxPoint x="220" y="970" as="sourcePoint" />
          </mxGeometry>
        </mxCell>
        <mxCell id="J5YvXjTz-N14ASz92c-d-69" value="" style="edgeStyle=orthogonalEdgeStyle;rounded=0;orthogonalLoop=1;jettySize=auto;html=1;" edge="1" parent="WIyWlLk6GJQsqaUBKTNV-1" source="J5YvXjTz-N14ASz92c-d-59" target="J5YvXjTz-N14ASz92c-d-68">
          <mxGeometry relative="1" as="geometry" />
        </mxCell>
        <mxCell id="J5YvXjTz-N14ASz92c-d-59" value="세이브 포인트 저장" style="whiteSpace=wrap;html=1;rounded=0;glass=0;strokeWidth=1;shadow=0;" vertex="1" parent="WIyWlLk6GJQsqaUBKTNV-1">
          <mxGeometry x="160" y="1010" width="120" height="60" as="geometry" />
        </mxCell>
        <mxCell id="J5YvXjTz-N14ASz92c-d-67" style="edgeStyle=orthogonalEdgeStyle;rounded=0;orthogonalLoop=1;jettySize=auto;html=1;fillColor=#f8cecc;strokeColor=#b85450;strokeWidth=2;exitX=1;exitY=0.5;exitDx=0;exitDy=0;" edge="1" parent="WIyWlLk6GJQsqaUBKTNV-1" source="J5YvXjTz-N14ASz92c-d-63">
          <mxGeometry relative="1" as="geometry">
            <mxPoint x="210" y="650" as="targetPoint" />
            <Array as="points">
              <mxPoint x="450" y="945" />
              <mxPoint x="450" y="650" />
              <mxPoint x="270" y="650" />
            </Array>
          </mxGeometry>
        </mxCell>
        <mxCell id="J5YvXjTz-N14ASz92c-d-63" value="살아서 세이브 존 까지 왔는가?" style="rhombus;whiteSpace=wrap;html=1;rounded=0;glass=0;strokeWidth=1;shadow=0;" vertex="1" parent="WIyWlLk6GJQsqaUBKTNV-1">
          <mxGeometry x="170" y="900" width="100" height="90" as="geometry" />
        </mxCell>
        <mxCell id="J5YvXjTz-N14ASz92c-d-83" value="" style="edgeStyle=orthogonalEdgeStyle;rounded=0;orthogonalLoop=1;jettySize=auto;html=1;" edge="1" parent="WIyWlLk6GJQsqaUBKTNV-1" source="J5YvXjTz-N14ASz92c-d-68" target="J5YvXjTz-N14ASz92c-d-82">
          <mxGeometry relative="1" as="geometry" />
        </mxCell>
        <mxCell id="J5YvXjTz-N14ASz92c-d-68" value="보스존 탐색" style="whiteSpace=wrap;html=1;rounded=0;glass=0;strokeWidth=1;shadow=0;" vertex="1" parent="WIyWlLk6GJQsqaUBKTNV-1">
          <mxGeometry x="160" y="1100" width="120" height="60" as="geometry" />
        </mxCell>
        <mxCell id="J5YvXjTz-N14ASz92c-d-85" value="" style="edgeStyle=orthogonalEdgeStyle;rounded=0;orthogonalLoop=1;jettySize=auto;html=1;" edge="1" parent="WIyWlLk6GJQsqaUBKTNV-1" source="J5YvXjTz-N14ASz92c-d-82" target="J5YvXjTz-N14ASz92c-d-84">
          <mxGeometry relative="1" as="geometry" />
        </mxCell>
        <mxCell id="J5YvXjTz-N14ASz92c-d-82" value="보스존 입장" style="whiteSpace=wrap;html=1;rounded=0;glass=0;strokeWidth=1;shadow=0;" vertex="1" parent="WIyWlLk6GJQsqaUBKTNV-1">
          <mxGeometry x="160" y="1180" width="120" height="60" as="geometry" />
        </mxCell>
        <mxCell id="J5YvXjTz-N14ASz92c-d-89" value="" style="edgeStyle=orthogonalEdgeStyle;rounded=0;orthogonalLoop=1;jettySize=auto;html=1;" edge="1" parent="WIyWlLk6GJQsqaUBKTNV-1" source="J5YvXjTz-N14ASz92c-d-84" target="J5YvXjTz-N14ASz92c-d-88">
          <mxGeometry relative="1" as="geometry" />
        </mxCell>
        <mxCell id="J5YvXjTz-N14ASz92c-d-94" value="" style="edgeStyle=orthogonalEdgeStyle;rounded=0;orthogonalLoop=1;jettySize=auto;html=1;" edge="1" parent="WIyWlLk6GJQsqaUBKTNV-1" source="J5YvXjTz-N14ASz92c-d-84" target="J5YvXjTz-N14ASz92c-d-93">
          <mxGeometry relative="1" as="geometry" />
        </mxCell>
        <mxCell id="J5YvXjTz-N14ASz92c-d-84" value="보스 전투의 &lt;br&gt;결과가 무엇인가?" style="rhombus;whiteSpace=wrap;html=1;rounded=0;glass=0;strokeWidth=1;shadow=0;" vertex="1" parent="WIyWlLk6GJQsqaUBKTNV-1">
          <mxGeometry x="135" y="1270" width="170" height="140" as="geometry" />
        </mxCell>
        <mxCell id="J5YvXjTz-N14ASz92c-d-98" value="" style="edgeStyle=orthogonalEdgeStyle;rounded=0;orthogonalLoop=1;jettySize=auto;html=1;" edge="1" parent="WIyWlLk6GJQsqaUBKTNV-1" source="J5YvXjTz-N14ASz92c-d-88" target="J5YvXjTz-N14ASz92c-d-97">
          <mxGeometry relative="1" as="geometry">
            <Array as="points">
              <mxPoint x="130" y="1580" />
              <mxPoint x="240" y="1580" />
            </Array>
          </mxGeometry>
        </mxCell>
        <mxCell id="J5YvXjTz-N14ASz92c-d-88" value="승리" style="whiteSpace=wrap;html=1;rounded=0;glass=0;strokeWidth=1;shadow=0;" vertex="1" parent="WIyWlLk6GJQsqaUBKTNV-1">
          <mxGeometry x="70" y="1460" width="120" height="60" as="geometry" />
        </mxCell>
        <mxCell id="J5YvXjTz-N14ASz92c-d-95" style="edgeStyle=orthogonalEdgeStyle;rounded=0;orthogonalLoop=1;jettySize=auto;html=1;exitX=1;exitY=0.5;exitDx=0;exitDy=0;entryX=1;entryY=0.5;entryDx=0;entryDy=0;fillColor=#f8cecc;strokeColor=#b85450;strokeWidth=2;" edge="1" parent="WIyWlLk6GJQsqaUBKTNV-1" source="J5YvXjTz-N14ASz92c-d-93" target="J5YvXjTz-N14ASz92c-d-59">
          <mxGeometry relative="1" as="geometry" />
        </mxCell>
        <mxCell id="J5YvXjTz-N14ASz92c-d-99" style="edgeStyle=orthogonalEdgeStyle;rounded=0;orthogonalLoop=1;jettySize=auto;html=1;exitX=0.5;exitY=1;exitDx=0;exitDy=0;entryX=0.5;entryY=0;entryDx=0;entryDy=0;" edge="1" parent="WIyWlLk6GJQsqaUBKTNV-1" source="J5YvXjTz-N14ASz92c-d-93" target="J5YvXjTz-N14ASz92c-d-97">
          <mxGeometry relative="1" as="geometry" />
        </mxCell>
        <mxCell id="J5YvXjTz-N14ASz92c-d-93" value="패배 사망" style="rhombus;whiteSpace=wrap;html=1;rounded=0;glass=0;strokeWidth=1;shadow=0;" vertex="1" parent="WIyWlLk6GJQsqaUBKTNV-1">
          <mxGeometry x="280" y="1460" width="110" height="90" as="geometry" />
        </mxCell>
        <mxCell id="J5YvXjTz-N14ASz92c-d-104" style="edgeStyle=orthogonalEdgeStyle;rounded=0;orthogonalLoop=1;jettySize=auto;html=1;exitX=1;exitY=0.5;exitDx=0;exitDy=0;strokeWidth=2;fillColor=#f8cecc;strokeColor=#b85450;" edge="1" parent="WIyWlLk6GJQsqaUBKTNV-1" source="J5YvXjTz-N14ASz92c-d-97">
          <mxGeometry relative="1" as="geometry">
            <mxPoint x="270" y="610" as="targetPoint" />
            <Array as="points">
              <mxPoint x="490" y="1660" />
              <mxPoint x="490" y="610" />
            </Array>
          </mxGeometry>
        </mxCell>
        <mxCell id="J5YvXjTz-N14ASz92c-d-107" value="" style="edgeStyle=orthogonalEdgeStyle;rounded=0;orthogonalLoop=1;jettySize=auto;html=1;" edge="1" parent="WIyWlLk6GJQsqaUBKTNV-1" source="J5YvXjTz-N14ASz92c-d-97" target="J5YvXjTz-N14ASz92c-d-106">
          <mxGeometry relative="1" as="geometry" />
        </mxCell>
        <mxCell id="J5YvXjTz-N14ASz92c-d-97" value="최종 보스인가?" style="rhombus;whiteSpace=wrap;html=1;rounded=0;glass=0;strokeWidth=1;shadow=0;" vertex="1" parent="WIyWlLk6GJQsqaUBKTNV-1">
          <mxGeometry x="180" y="1600" width="120" height="120" as="geometry" />
        </mxCell>
        <mxCell id="J5YvXjTz-N14ASz92c-d-106" value="엔딩 크레딧" style="whiteSpace=wrap;html=1;rounded=1;glass=0;strokeWidth=1;shadow=0;" vertex="1" parent="WIyWlLk6GJQsqaUBKTNV-1">
          <mxGeometry x="180" y="1770" width="120" height="60" as="geometry" />
        </mxCell>
      </root>
    </mxGraphModel>
  </diagram>
</mxfile>
